<svg width="200" height="107" viewBox="0 0 200 107" fill="none" xmlns="http://www.w3.org/2000/svg">
<path d="M33.9913 0.0200195C33.9176 0.0200195 33.85 0.0604584 33.8151 0.125292L0.158503 62.7087C0.0868463 62.842 0.183356 63.0035 0.334645 63.0035H13.2292C13.3027 63.0035 13.3702 62.9631 13.4052 62.8985L39.3701 14.8152C39.4454 14.6756 39.6454 14.6751 39.7215 14.8142L56.5689 45.6049C56.6418 45.7382 56.5454 45.9009 56.3935 45.9009H31.8194C31.7473 45.9009 31.6807 45.9398 31.6452 46.0027L26.0308 55.963C25.9556 56.0963 26.0519 56.2612 26.205 56.2612H61.954C62.0259 56.2612 62.0922 56.2998 62.1278 56.3623L65.8504 62.9024C65.886 62.9649 65.9524 63.0035 66.0243 63.0035H90.0691C90.1796 63.0035 90.2691 62.9139 90.2691 62.8035V46.9712C90.2691 46.9177 90.2906 46.8663 90.3288 46.8288L111.78 25.6874C111.907 25.5619 111.818 25.345 111.639 25.345H90.4691C90.3587 25.345 90.2691 25.2554 90.2691 25.145V12.718C90.2691 12.6076 90.3587 12.5181 90.4691 12.5181H116.632C126.403 12.9032 131.175 24.4972 124.46 31.536L123.306 32.7451L105.956 50.3295C105.831 50.4558 105.92 50.6699 106.098 50.6699H119.553C119.606 50.6699 119.657 50.691 119.694 50.7284L131.924 62.945C131.962 62.9824 132.013 63.0035 132.066 63.0035H148.064C148.129 63.0035 148.19 62.9716 148.228 62.9182L164.035 40.3605C164.111 40.2522 164.269 40.246 164.353 40.348L182.981 62.9307C183.019 62.9768 183.075 63.0035 183.135 63.0035H199.467C199.636 63.0035 199.729 62.8059 199.621 62.6756L172.804 30.4085C172.741 30.3334 172.742 30.2242 172.806 30.1502L198.441 0.350448C198.553 0.220785 198.461 0.0200195 198.289 0.0200195H182.467C182.408 0.0200195 182.351 0.0461979 182.313 0.0915202L159.7 27.0615C159.58 27.2046 159.347 27.1197 159.347 26.933V0.22002C159.347 0.109563 159.258 0.0200195 159.147 0.0200195H146.532C146.422 0.0200195 146.332 0.109563 146.332 0.22002V61.0421C146.332 61.22 146.117 61.3094 145.991 61.1838L129.804 45.0703C129.72 44.9868 129.726 44.8491 129.818 44.774L131.874 43.0853C148.358 29.5465 140.839 3.07112 119.65 0.0220768C119.64 0.0207242 119.631 0.0200195 119.621 0.0200195H77.2873C77.1768 0.0200195 77.0873 0.109563 77.0873 0.22002V58.4243C77.0873 58.6323 76.8091 58.7021 76.7109 58.5187L45.4414 0.125608C45.4066 0.0606008 45.3388 0.0200195 45.2651 0.0200195H33.9913Z" fill="white"/>
<g clip-path="url(#clip0_458_32)">
<path d="M41.9868 76.0988L39.6446 78.3112C35.0565 74.3531 30.5413 77.8192 30.5413 81.7281C30.5413 85.637 34.3321 88.3649 38.4131 85.6858V81.3839H41.6729V89.6189H38.9443V88.7094C32.9799 91.7818 26.8467 88.4392 26.8467 81.3838C26.8467 74.3285 36.0707 70.3216 41.9868 76.0988Z" fill="white"/>
<path fill-rule="evenodd" clip-rule="evenodd" d="M60.5312 73.6401V89.5447H64.1291V85.1446H67.4855L70.4797 89.5447H74.4156L70.9143 84.4808C76.9027 81.0393 73.836 73.6401 67.8718 73.6401H60.5312ZM64.1774 76.6639V82.2195H67.5096C71.2765 82.2195 71.4697 76.6639 67.5096 76.6639H64.1774Z" fill="white"/>
<path fill-rule="evenodd" clip-rule="evenodd" d="M99.9868 89.9871C104.735 89.9871 108.583 86.2672 108.583 81.6784C108.583 77.0896 104.735 73.3696 99.9868 73.3696C95.2391 73.3696 91.3906 77.0896 91.3906 81.6784C91.3906 86.2672 95.2391 89.9871 99.9868 89.9871ZM100.011 86.7423C102.745 86.7423 104.961 84.442 104.961 81.6046C104.961 78.7672 102.745 76.467 100.011 76.467C97.2771 76.467 95.0609 78.7672 95.0609 81.6046C95.0609 84.442 97.2771 86.7423 100.011 86.7423Z" fill="white"/>
<path d="M130.242 73.6157H126.596L126.62 83.6206C126.62 89.5695 133.116 91.9294 137.221 87.775V89.6678H140.77V73.6157H137.124V82.7357C137.124 87.4554 130.242 88.4141 130.242 83.1044V73.6157Z" fill="white"/>
<path fill-rule="evenodd" clip-rule="evenodd" d="M159.967 73.6401V89.6185H163.589V85.1937H167.356C175.856 85.0708 175.252 73.6401 167.356 73.6401H159.967ZM163.589 76.6637V82.2193H166.922C170.688 82.2193 170.882 76.6637 166.922 76.6637H163.589Z" fill="white"/>
</g>
<mask id="path-7-outside-1_458_32" maskUnits="userSpaceOnUse" x="21.2627" y="97.2197" width="157" height="10" fill="black">
<rect fill="white" x="21.2627" y="97.2197" width="157" height="10"/>
<path d="M22.2627 106.66L25.9567 98.2915H26.7993L30.4933 106.66H29.5929L26.1991 98.8055H26.5454L23.1516 106.66H22.2627ZM23.7172 104.425L23.9712 103.707H28.6694L28.9234 104.425H23.7172Z"/>
<path d="M31.83 106.66V98.2915H32.5342L38.1098 105.56H37.7404V98.2915H38.5831V106.66H37.8789L32.3149 99.3914H32.6843V106.66H31.83Z"/>
<path d="M44.7644 106.732C44.1488 106.732 43.5793 106.628 43.056 106.421C42.5403 106.206 42.0901 105.907 41.7053 105.525C41.3283 105.142 41.032 104.692 40.8165 104.174C40.6087 103.656 40.5048 103.09 40.5048 102.476C40.5048 101.862 40.6087 101.296 40.8165 100.778C41.032 100.26 41.3321 99.8098 41.7169 99.4272C42.1017 99.0447 42.5519 98.7498 43.0675 98.5425C43.5908 98.3273 44.1603 98.2197 44.776 98.2197C45.3916 98.2197 45.9534 98.3194 46.4613 98.5186C46.9769 98.7179 47.4156 99.0207 47.7773 99.4272L47.2463 99.9891C46.9077 99.6385 46.5344 99.3874 46.1266 99.2359C45.7187 99.0845 45.28 99.0088 44.8106 99.0088C44.3104 99.0088 43.8486 99.0965 43.4253 99.2718C43.0098 99.4392 42.6442 99.6823 42.3287 100.001C42.0209 100.312 41.7785 100.679 41.6015 101.101C41.4321 101.515 41.3475 101.974 41.3475 102.476C41.3475 102.97 41.4321 103.428 41.6015 103.851C41.7785 104.273 42.0209 104.644 42.3287 104.963C42.6442 105.273 43.0098 105.517 43.4253 105.692C43.8486 105.859 44.3065 105.943 44.799 105.943C45.2608 105.943 45.6956 105.871 46.1035 105.728C46.519 105.584 46.9 105.341 47.2463 104.999L47.7311 105.668C47.3463 106.019 46.8961 106.286 46.3805 106.469C45.8649 106.644 45.3262 106.732 44.7644 106.732ZM46.9115 105.56V102.476H47.7311V105.668L46.9115 105.56Z"/>
<path d="M48.8559 106.66L52.5499 98.2915H53.3926L57.0865 106.66H56.1861L52.7923 98.8055H53.1386L49.7448 106.66H48.8559ZM50.3104 104.425L50.5644 103.707H55.2626L55.5166 104.425H50.3104Z"/>
<path d="M58.4232 106.66V98.2915H61.7132C62.5751 98.2915 63.3293 98.4708 63.9757 98.8295C64.6299 99.1802 65.1378 99.6703 65.4995 100.3C65.8612 100.93 66.0421 101.655 66.0421 102.476C66.0421 103.297 65.8612 104.022 65.4995 104.652C65.1378 105.281 64.6299 105.776 63.9757 106.134C63.3293 106.485 62.5751 106.66 61.7132 106.66H58.4232ZM59.2775 105.895H61.667C62.3827 105.895 63.0022 105.752 63.5255 105.465C64.0565 105.17 64.4683 104.767 64.7607 104.257C65.0532 103.739 65.1994 103.145 65.1994 102.476C65.1994 101.798 65.0532 101.205 64.7607 100.695C64.4683 100.184 64.0565 99.7859 63.5255 99.499C63.0022 99.2041 62.3827 99.0566 61.667 99.0566H59.2775V105.895Z"/>
<path d="M71.374 104.305C71.22 104.305 71.0738 104.265 70.9353 104.186C70.8045 104.106 70.7006 103.998 70.6236 103.863C70.5467 103.727 70.5082 103.568 70.5082 103.385C70.5082 103.217 70.5467 103.066 70.6236 102.93C70.7006 102.795 70.8045 102.687 70.9353 102.607C71.0738 102.528 71.22 102.488 71.374 102.488C71.5279 102.488 71.6702 102.528 71.8011 102.607C71.9319 102.687 72.0358 102.795 72.1127 102.93C72.1974 103.066 72.2397 103.217 72.2397 103.385C72.2397 103.568 72.1974 103.727 72.1127 103.863C72.0358 103.998 71.9319 104.106 71.8011 104.186C71.6702 104.265 71.5279 104.305 71.374 104.305Z"/>
<path d="M76.1142 106.66L79.8082 98.2915H80.6509L84.3449 106.66H83.4445L80.0506 98.8055H80.3969L77.0031 106.66H76.1142ZM77.5687 104.425L77.8227 103.707H82.521L82.7749 104.425H77.5687Z"/>
<path d="M85.6816 106.66V98.2915H86.3857L91.9613 105.56H91.5919V98.2915H92.4346V106.66H91.7304L86.1664 99.3914H86.5358V106.66H85.6816Z"/>
<path d="M98.616 106.732C98.0003 106.732 97.4308 106.628 96.9075 106.421C96.3919 106.206 95.9417 105.907 95.5569 105.525C95.1798 105.142 94.8835 104.692 94.668 104.174C94.4602 103.656 94.3564 103.09 94.3564 102.476C94.3564 101.862 94.4602 101.296 94.668 100.778C94.8835 100.26 95.1837 99.8098 95.5684 99.4272C95.9532 99.0447 96.4034 98.7498 96.919 98.5425C97.4424 98.3273 98.0118 98.2197 98.6275 98.2197C99.2432 98.2197 99.805 98.3194 100.313 98.5186C100.829 98.7179 101.267 99.0207 101.629 99.4272L101.098 99.9891C100.759 99.6385 100.386 99.3874 99.9781 99.2359C99.5702 99.0845 99.1316 99.0088 98.6621 99.0088C98.1619 99.0088 97.7002 99.0965 97.2769 99.2718C96.8613 99.4392 96.4958 99.6823 96.1803 100.001C95.8724 100.312 95.63 100.679 95.453 101.101C95.2837 101.515 95.199 101.974 95.199 102.476C95.199 102.97 95.2837 103.428 95.453 103.851C95.63 104.273 95.8724 104.644 96.1803 104.963C96.4958 105.273 96.8613 105.517 97.2769 105.692C97.7002 105.859 98.1581 105.943 98.6506 105.943C99.1123 105.943 99.5472 105.871 99.955 105.728C100.371 105.584 100.752 105.341 101.098 104.999L101.583 105.668C101.198 106.019 100.748 106.286 100.232 106.469C99.7165 106.644 99.1778 106.732 98.616 106.732ZM100.763 105.56V102.476H101.583V105.668L100.763 105.56Z"/>
<path d="M102.707 106.66L106.401 98.2915H107.244L110.938 106.66H110.038L106.644 98.8055H106.99L103.596 106.66H102.707ZM104.162 104.425L104.416 103.707H109.114L109.368 104.425H104.162Z"/>
<path d="M113.439 106.66V99.0566H110.599V98.2915H117.133V99.0566H114.293V106.66H113.439Z"/>
<path d="M121.911 104.305C121.757 104.305 121.611 104.265 121.473 104.186C121.342 104.106 121.238 103.998 121.161 103.863C121.084 103.727 121.045 103.568 121.045 103.385C121.045 103.217 121.084 103.066 121.161 102.93C121.238 102.795 121.342 102.687 121.473 102.607C121.611 102.528 121.757 102.488 121.911 102.488C122.065 102.488 122.208 102.528 122.338 102.607C122.469 102.687 122.573 102.795 122.65 102.93C122.735 103.066 122.777 103.217 122.777 103.385C122.777 103.568 122.735 103.727 122.65 103.863C122.573 103.998 122.469 104.106 122.338 104.186C122.208 104.265 122.065 104.305 121.911 104.305Z"/>
<path d="M128.683 104.58L128.649 103.504L133.543 98.2915H134.524L130.957 102.165L130.472 102.703L128.683 104.58ZM127.944 106.66V98.2915H128.799V106.66H127.944ZM133.751 106.66L130.265 102.5L130.842 101.854L134.767 106.66H133.751Z"/>
<path d="M134.543 106.66L138.237 98.2915H139.079L142.773 106.66H141.873L138.479 98.8055H138.825L135.432 106.66H134.543ZM135.997 104.425L136.251 103.707H140.949L141.203 104.425H135.997Z"/>
<path d="M146.338 106.732C145.738 106.732 145.16 106.632 144.606 106.433C144.06 106.226 143.637 105.963 143.337 105.644L143.671 104.963C143.956 105.25 144.337 105.493 144.814 105.692C145.299 105.883 145.807 105.979 146.338 105.979C146.846 105.979 147.258 105.915 147.573 105.788C147.896 105.652 148.131 105.473 148.277 105.25C148.431 105.026 148.508 104.779 148.508 104.508C148.508 104.182 148.416 103.919 148.231 103.719C148.054 103.52 147.819 103.365 147.527 103.253C147.234 103.133 146.911 103.03 146.557 102.942C146.203 102.854 145.849 102.763 145.495 102.667C145.141 102.564 144.814 102.428 144.514 102.261C144.222 102.093 143.983 101.874 143.798 101.603C143.621 101.324 143.533 100.962 143.533 100.515C143.533 100.101 143.637 99.7221 143.844 99.3794C144.06 99.0287 144.387 98.7498 144.826 98.5425C145.264 98.3273 145.826 98.2197 146.511 98.2197C146.965 98.2197 147.415 98.2875 147.862 98.423C148.308 98.5505 148.693 98.7298 149.016 98.961L148.727 99.6663C148.381 99.4272 148.012 99.2519 147.619 99.1403C147.234 99.0287 146.861 98.9729 146.5 98.9729C146.015 98.9729 145.615 99.0407 145.299 99.1762C144.983 99.3117 144.749 99.495 144.595 99.7261C144.449 99.9493 144.376 100.204 144.376 100.491C144.376 100.818 144.464 101.081 144.641 101.28C144.826 101.48 145.064 101.635 145.357 101.747C145.657 101.858 145.984 101.958 146.338 102.046C146.692 102.133 147.042 102.229 147.388 102.332C147.742 102.436 148.066 102.572 148.358 102.739C148.658 102.898 148.897 103.114 149.074 103.385C149.258 103.656 149.351 104.01 149.351 104.449C149.351 104.855 149.243 105.234 149.028 105.584C148.812 105.927 148.481 106.206 148.035 106.421C147.596 106.628 147.031 106.732 146.338 106.732Z"/>
<path d="M149.919 106.66L153.613 98.2915H154.456L158.15 106.66H157.249L153.856 98.8055H154.202L150.808 106.66H149.919ZM151.374 104.425L151.628 103.707H156.326L156.58 104.425H151.374Z"/>
<path d="M159.486 106.66V98.2915H160.191L163.885 104.819H163.515L167.175 98.2915H167.879V106.66H167.059V99.6185H167.255L163.885 105.596H163.481L160.087 99.6185H160.306V106.66H159.486Z"/>
<path d="M169.219 106.66L172.913 98.2915H173.755L177.449 106.66H176.549L173.155 98.8055H173.501L170.108 106.66H169.219ZM170.673 104.425L170.927 103.707H175.625L175.879 104.425H170.673Z"/>
</mask>
<path d="M22.2627 106.66L25.9567 98.2915H26.7993L30.4933 106.66H29.5929L26.1991 98.8055H26.5454L23.1516 106.66H22.2627ZM23.7172 104.425L23.9712 103.707H28.6694L28.9234 104.425H23.7172Z" fill="white"/>
<path d="M31.83 106.66V98.2915H32.5342L38.1098 105.56H37.7404V98.2915H38.5831V106.66H37.8789L32.3149 99.3914H32.6843V106.66H31.83Z" fill="white"/>
<path d="M44.7644 106.732C44.1488 106.732 43.5793 106.628 43.056 106.421C42.5403 106.206 42.0901 105.907 41.7053 105.525C41.3283 105.142 41.032 104.692 40.8165 104.174C40.6087 103.656 40.5048 103.09 40.5048 102.476C40.5048 101.862 40.6087 101.296 40.8165 100.778C41.032 100.26 41.3321 99.8098 41.7169 99.4272C42.1017 99.0447 42.5519 98.7498 43.0675 98.5425C43.5908 98.3273 44.1603 98.2197 44.776 98.2197C45.3916 98.2197 45.9534 98.3194 46.4613 98.5186C46.9769 98.7179 47.4156 99.0207 47.7773 99.4272L47.2463 99.9891C46.9077 99.6385 46.5344 99.3874 46.1266 99.2359C45.7187 99.0845 45.28 99.0088 44.8106 99.0088C44.3104 99.0088 43.8486 99.0965 43.4253 99.2718C43.0098 99.4392 42.6442 99.6823 42.3287 100.001C42.0209 100.312 41.7785 100.679 41.6015 101.101C41.4321 101.515 41.3475 101.974 41.3475 102.476C41.3475 102.97 41.4321 103.428 41.6015 103.851C41.7785 104.273 42.0209 104.644 42.3287 104.963C42.6442 105.273 43.0098 105.517 43.4253 105.692C43.8486 105.859 44.3065 105.943 44.799 105.943C45.2608 105.943 45.6956 105.871 46.1035 105.728C46.519 105.584 46.9 105.341 47.2463 104.999L47.7311 105.668C47.3463 106.019 46.8961 106.286 46.3805 106.469C45.8649 106.644 45.3262 106.732 44.7644 106.732ZM46.9115 105.56V102.476H47.7311V105.668L46.9115 105.56Z" fill="white"/>
<path d="M48.8559 106.66L52.5499 98.2915H53.3926L57.0865 106.66H56.1861L52.7923 98.8055H53.1386L49.7448 106.66H48.8559ZM50.3104 104.425L50.5644 103.707H55.2626L55.5166 104.425H50.3104Z" fill="white"/>
<path d="M58.4232 106.66V98.2915H61.7132C62.5751 98.2915 63.3293 98.4708 63.9757 98.8295C64.6299 99.1802 65.1378 99.6703 65.4995 100.3C65.8612 100.93 66.0421 101.655 66.0421 102.476C66.0421 103.297 65.8612 104.022 65.4995 104.652C65.1378 105.281 64.6299 105.776 63.9757 106.134C63.3293 106.485 62.5751 106.66 61.7132 106.66H58.4232ZM59.2775 105.895H61.667C62.3827 105.895 63.0022 105.752 63.5255 105.465C64.0565 105.17 64.4683 104.767 64.7607 104.257C65.0532 103.739 65.1994 103.145 65.1994 102.476C65.1994 101.798 65.0532 101.205 64.7607 100.695C64.4683 100.184 64.0565 99.7859 63.5255 99.499C63.0022 99.2041 62.3827 99.0566 61.667 99.0566H59.2775V105.895Z" fill="white"/>
<path d="M71.374 104.305C71.22 104.305 71.0738 104.265 70.9353 104.186C70.8045 104.106 70.7006 103.998 70.6236 103.863C70.5467 103.727 70.5082 103.568 70.5082 103.385C70.5082 103.217 70.5467 103.066 70.6236 102.93C70.7006 102.795 70.8045 102.687 70.9353 102.607C71.0738 102.528 71.22 102.488 71.374 102.488C71.5279 102.488 71.6702 102.528 71.8011 102.607C71.9319 102.687 72.0358 102.795 72.1127 102.93C72.1974 103.066 72.2397 103.217 72.2397 103.385C72.2397 103.568 72.1974 103.727 72.1127 103.863C72.0358 103.998 71.9319 104.106 71.8011 104.186C71.6702 104.265 71.5279 104.305 71.374 104.305Z" fill="white"/>
<path d="M76.1142 106.66L79.8082 98.2915H80.6509L84.3449 106.66H83.4445L80.0506 98.8055H80.3969L77.0031 106.66H76.1142ZM77.5687 104.425L77.8227 103.707H82.521L82.7749 104.425H77.5687Z" fill="white"/>
<path d="M85.6816 106.66V98.2915H86.3857L91.9613 105.56H91.5919V98.2915H92.4346V106.66H91.7304L86.1664 99.3914H86.5358V106.66H85.6816Z" fill="white"/>
<path d="M98.616 106.732C98.0003 106.732 97.4308 106.628 96.9075 106.421C96.3919 106.206 95.9417 105.907 95.5569 105.525C95.1798 105.142 94.8835 104.692 94.668 104.174C94.4602 103.656 94.3564 103.09 94.3564 102.476C94.3564 101.862 94.4602 101.296 94.668 100.778C94.8835 100.26 95.1837 99.8098 95.5684 99.4272C95.9532 99.0447 96.4034 98.7498 96.919 98.5425C97.4424 98.3273 98.0118 98.2197 98.6275 98.2197C99.2432 98.2197 99.805 98.3194 100.313 98.5186C100.829 98.7179 101.267 99.0207 101.629 99.4272L101.098 99.9891C100.759 99.6385 100.386 99.3874 99.9781 99.2359C99.5702 99.0845 99.1316 99.0088 98.6621 99.0088C98.1619 99.0088 97.7002 99.0965 97.2769 99.2718C96.8613 99.4392 96.4958 99.6823 96.1803 100.001C95.8724 100.312 95.63 100.679 95.453 101.101C95.2837 101.515 95.199 101.974 95.199 102.476C95.199 102.97 95.2837 103.428 95.453 103.851C95.63 104.273 95.8724 104.644 96.1803 104.963C96.4958 105.273 96.8613 105.517 97.2769 105.692C97.7002 105.859 98.1581 105.943 98.6506 105.943C99.1123 105.943 99.5472 105.871 99.955 105.728C100.371 105.584 100.752 105.341 101.098 104.999L101.583 105.668C101.198 106.019 100.748 106.286 100.232 106.469C99.7165 106.644 99.1778 106.732 98.616 106.732ZM100.763 105.56V102.476H101.583V105.668L100.763 105.56Z" fill="white"/>
<path d="M102.707 106.66L106.401 98.2915H107.244L110.938 106.66H110.038L106.644 98.8055H106.99L103.596 106.66H102.707ZM104.162 104.425L104.416 103.707H109.114L109.368 104.425H104.162Z" fill="white"/>
<path d="M113.439 106.66V99.0566H110.599V98.2915H117.133V99.0566H114.293V106.66H113.439Z" fill="white"/>
<path d="M121.911 104.305C121.757 104.305 121.611 104.265 121.473 104.186C121.342 104.106 121.238 103.998 121.161 103.863C121.084 103.727 121.045 103.568 121.045 103.385C121.045 103.217 121.084 103.066 121.161 102.93C121.238 102.795 121.342 102.687 121.473 102.607C121.611 102.528 121.757 102.488 121.911 102.488C122.065 102.488 122.208 102.528 122.338 102.607C122.469 102.687 122.573 102.795 122.65 102.93C122.735 103.066 122.777 103.217 122.777 103.385C122.777 103.568 122.735 103.727 122.65 103.863C122.573 103.998 122.469 104.106 122.338 104.186C122.208 104.265 122.065 104.305 121.911 104.305Z" fill="white"/>
<path d="M128.683 104.58L128.649 103.504L133.543 98.2915H134.524L130.957 102.165L130.472 102.703L128.683 104.58ZM127.944 106.66V98.2915H128.799V106.66H127.944ZM133.751 106.66L130.265 102.5L130.842 101.854L134.767 106.66H133.751Z" fill="white"/>
<path d="M134.543 106.66L138.237 98.2915H139.079L142.773 106.66H141.873L138.479 98.8055H138.825L135.432 106.66H134.543ZM135.997 104.425L136.251 103.707H140.949L141.203 104.425H135.997Z" fill="white"/>
<path d="M146.338 106.732C145.738 106.732 145.16 106.632 144.606 106.433C144.06 106.226 143.637 105.963 143.337 105.644L143.671 104.963C143.956 105.25 144.337 105.493 144.814 105.692C145.299 105.883 145.807 105.979 146.338 105.979C146.846 105.979 147.258 105.915 147.573 105.788C147.896 105.652 148.131 105.473 148.277 105.25C148.431 105.026 148.508 104.779 148.508 104.508C148.508 104.182 148.416 103.919 148.231 103.719C148.054 103.52 147.819 103.365 147.527 103.253C147.234 103.133 146.911 103.03 146.557 102.942C146.203 102.854 145.849 102.763 145.495 102.667C145.141 102.564 144.814 102.428 144.514 102.261C144.222 102.093 143.983 101.874 143.798 101.603C143.621 101.324 143.533 100.962 143.533 100.515C143.533 100.101 143.637 99.7221 143.844 99.3794C144.06 99.0287 144.387 98.7498 144.826 98.5425C145.264 98.3273 145.826 98.2197 146.511 98.2197C146.965 98.2197 147.415 98.2875 147.862 98.423C148.308 98.5505 148.693 98.7298 149.016 98.961L148.727 99.6663C148.381 99.4272 148.012 99.2519 147.619 99.1403C147.234 99.0287 146.861 98.9729 146.5 98.9729C146.015 98.9729 145.615 99.0407 145.299 99.1762C144.983 99.3117 144.749 99.495 144.595 99.7261C144.449 99.9493 144.376 100.204 144.376 100.491C144.376 100.818 144.464 101.081 144.641 101.28C144.826 101.48 145.064 101.635 145.357 101.747C145.657 101.858 145.984 101.958 146.338 102.046C146.692 102.133 147.042 102.229 147.388 102.332C147.742 102.436 148.066 102.572 148.358 102.739C148.658 102.898 148.897 103.114 149.074 103.385C149.258 103.656 149.351 104.01 149.351 104.449C149.351 104.855 149.243 105.234 149.028 105.584C148.812 105.927 148.481 106.206 148.035 106.421C147.596 106.628 147.031 106.732 146.338 106.732Z" fill="white"/>
<path d="M149.919 106.66L153.613 98.2915H154.456L158.15 106.66H157.249L153.856 98.8055H154.202L150.808 106.66H149.919ZM151.374 104.425L151.628 103.707H156.326L156.58 104.425H151.374Z" fill="white"/>
<path d="M159.486 106.66V98.2915H160.191L163.885 104.819H163.515L167.175 98.2915H167.879V106.66H167.059V99.6185H167.255L163.885 105.596H163.481L160.087 99.6185H160.306V106.66H159.486Z" fill="white"/>
<path d="M169.219 106.66L172.913 98.2915H173.755L177.449 106.66H176.549L173.155 98.8055H173.501L170.108 106.66H169.219ZM170.673 104.425L170.927 103.707H175.625L175.879 104.425H170.673Z" fill="white"/>
<path d="M22.2627 106.66L22.0797 106.58L21.9558 106.86H22.2627V106.66ZM25.9567 98.2915V98.0915H25.8263L25.7737 98.2107L25.9567 98.2915ZM26.7993 98.2915L26.9823 98.2107L26.9297 98.0915H26.7993V98.2915ZM30.4933 106.66V106.86H30.8002L30.6763 106.58L30.4933 106.66ZM29.5929 106.66L29.4093 106.74L29.4615 106.86H29.5929V106.66ZM26.1991 98.8055V98.6055H25.8948L26.0155 98.8849L26.1991 98.8055ZM26.5454 98.8055L26.729 98.8849L26.8497 98.6055H26.5454V98.8055ZM23.1516 106.66V106.86H23.283L23.3352 106.74L23.1516 106.66ZM23.7172 104.425L23.5287 104.358L23.4342 104.625H23.7172V104.425ZM23.9712 103.707V103.507H23.8298L23.7826 103.641L23.9712 103.707ZM28.6694 103.707L28.858 103.641L28.8108 103.507H28.6694V103.707ZM28.9234 104.425V104.625H29.2063L29.1119 104.358L28.9234 104.425ZM31.83 106.66H31.63V106.86H31.83V106.66ZM31.83 98.2915V98.0915H31.63V98.2915H31.83ZM32.5342 98.2915L32.6929 98.1697L32.6328 98.0915H32.5342V98.2915ZM38.1098 105.56V105.76H38.5152L38.2685 105.439L38.1098 105.56ZM37.7404 105.56H37.5404V105.76H37.7404V105.56ZM37.7404 98.2915V98.0915H37.5404V98.2915H37.7404ZM38.5831 98.2915H38.7831V98.0915H38.5831V98.2915ZM38.5831 106.66V106.86H38.7831V106.66H38.5831ZM37.8789 106.66L37.7201 106.782L37.7801 106.86H37.8789V106.66ZM32.3149 99.3914V99.1914H31.9099L32.156 99.5129L32.3149 99.3914ZM32.6843 99.3914H32.8843V99.1914H32.6843V99.3914ZM32.6843 106.66V106.86H32.8843V106.66H32.6843ZM43.056 106.421L42.9789 106.606L42.9823 106.607L43.056 106.421ZM41.7053 105.525L41.5629 105.665L41.5643 105.666L41.7053 105.525ZM40.8165 104.174L40.6308 104.248L40.6318 104.25L40.8165 104.174ZM40.8165 100.778L40.6318 100.701L40.6309 100.704L40.8165 100.778ZM41.7169 99.4272L41.8579 99.5691L41.8579 99.5691L41.7169 99.4272ZM43.0675 98.5425L43.1421 98.7281L43.1436 98.7275L43.0675 98.5425ZM46.4613 98.5186L46.3883 98.7048L46.3892 98.7052L46.4613 98.5186ZM47.7773 99.4272L47.9227 99.5646L48.0486 99.4313L47.9267 99.2943L47.7773 99.4272ZM47.2463 99.9891L47.1024 100.128L47.2479 100.279L47.3917 100.127L47.2463 99.9891ZM46.1266 99.2359L46.1962 99.0485L46.1962 99.0485L46.1266 99.2359ZM43.4253 99.2718L43.5001 99.4573L43.5019 99.4566L43.4253 99.2718ZM42.3287 100.001L42.4708 100.142L42.4709 100.142L42.3287 100.001ZM41.6015 101.101L41.417 101.024L41.4163 101.025L41.6015 101.101ZM41.6015 103.851L41.4158 103.925L41.417 103.928L41.6015 103.851ZM42.3287 104.963L42.1848 105.102L42.1883 105.105L42.3287 104.963ZM43.4253 105.692L43.3476 105.876L43.3518 105.878L43.4253 105.692ZM46.1035 105.728L46.0382 105.539L46.0371 105.539L46.1035 105.728ZM47.2463 104.999L47.4083 104.881L47.2714 104.692L47.1056 104.856L47.2463 104.999ZM47.7311 105.668L47.8659 105.816L47.9311 105.756V105.668H47.7311ZM46.3805 106.469L46.4449 106.658L46.4475 106.657L46.3805 106.469ZM46.9115 105.56H46.7115V105.736L46.8855 105.759L46.9115 105.56ZM46.9115 102.476V102.276H46.7115V102.476H46.9115ZM47.7311 102.476H47.9311V102.276H47.7311V102.476ZM48.8559 106.66L48.6729 106.58L48.549 106.86H48.8559V106.66ZM52.5499 98.2915V98.0915H52.4195L52.3669 98.2107L52.5499 98.2915ZM53.3926 98.2915L53.5755 98.2107L53.5229 98.0915H53.3926V98.2915ZM57.0865 106.66V106.86H57.3934L57.2695 106.58L57.0865 106.66ZM56.1861 106.66L56.0025 106.74L56.0547 106.86H56.1861V106.66ZM52.7923 98.8055V98.6055H52.488L52.6087 98.8849L52.7923 98.8055ZM53.1386 98.8055L53.3222 98.8849L53.4429 98.6055H53.1386V98.8055ZM49.7448 106.66V106.86H49.8762L49.9284 106.74L49.7448 106.66ZM50.3104 104.425L50.1219 104.358L50.0274 104.625H50.3104V104.425ZM50.5644 103.707V103.507H50.423L50.3758 103.641L50.5644 103.707ZM55.2626 103.707L55.4512 103.641L55.404 103.507H55.2626V103.707ZM55.5166 104.425V104.625H55.7996L55.7051 104.358L55.5166 104.425ZM58.4232 106.66H58.2232V106.86H58.4232V106.66ZM58.4232 98.2915V98.0915H58.2232V98.2915H58.4232ZM63.9757 98.8295L63.8787 99.0044L63.8812 99.0057L63.9757 98.8295ZM65.4995 100.3L65.6729 100.2L65.6729 100.2L65.4995 100.3ZM65.4995 104.652L65.6729 104.751L65.6729 104.751L65.4995 104.652ZM63.9757 106.134L64.0711 106.31L64.0719 106.31L63.9757 106.134ZM59.2775 105.895H59.0775V106.095H59.2775V105.895ZM63.5255 105.465L63.6217 105.64L63.6226 105.64L63.5255 105.465ZM64.7607 104.257L64.9342 104.357L64.9349 104.356L64.7607 104.257ZM64.7607 100.695L64.9342 100.595L64.9342 100.595L64.7607 100.695ZM63.5255 99.499L63.4273 99.6732L63.4305 99.6749L63.5255 99.499ZM59.2775 99.0566V98.8566H59.0775V99.0566H59.2775ZM70.9353 104.186L70.8312 104.356L70.8356 104.359L70.9353 104.186ZM70.6236 102.93L70.7975 103.029L70.7975 103.029L70.6236 102.93ZM70.9353 102.607L70.8355 102.434L70.8312 102.437L70.9353 102.607ZM71.8011 102.607L71.697 102.778L71.697 102.778L71.8011 102.607ZM72.1127 102.93L71.9387 103.029L71.9431 103.036L72.1127 102.93ZM72.1127 103.863L71.943 103.757L71.9388 103.764L72.1127 103.863ZM71.8011 104.186L71.697 104.015L71.697 104.015L71.8011 104.186ZM76.1142 106.66L75.9313 106.58L75.8073 106.86H76.1142V106.66ZM79.8082 98.2915V98.0915H79.6779L79.6252 98.2107L79.8082 98.2915ZM80.6509 98.2915L80.8339 98.2107L80.7812 98.0915H80.6509V98.2915ZM84.3449 106.66V106.86H84.6518L84.5278 106.58L84.3449 106.66ZM83.4445 106.66L83.2609 106.74L83.313 106.86H83.4445V106.66ZM80.0506 98.8055V98.6055H79.7463L79.867 98.8849L80.0506 98.8055ZM80.3969 98.8055L80.5805 98.8849L80.7012 98.6055H80.3969V98.8055ZM77.0031 106.66V106.86H77.1346L77.1867 106.74L77.0031 106.66ZM77.5687 104.425L77.3802 104.358L77.2858 104.625H77.5687V104.425ZM77.8227 103.707V103.507H77.6813L77.6342 103.641L77.8227 103.707ZM82.521 103.707L82.7095 103.641L82.6623 103.507H82.521V103.707ZM82.7749 104.425V104.625H83.0579L82.9635 104.358L82.7749 104.425ZM85.6816 106.66H85.4816V106.86H85.6816V106.66ZM85.6816 98.2915V98.0915H85.4816V98.2915H85.6816ZM86.3857 98.2915L86.5444 98.1697L86.4844 98.0915H86.3857V98.2915ZM91.9613 105.56V105.76H92.3668L92.12 105.439L91.9613 105.56ZM91.5919 105.56H91.3919V105.76H91.5919V105.56ZM91.5919 98.2915V98.0915H91.3919V98.2915H91.5919ZM92.4346 98.2915H92.6346V98.0915H92.4346V98.2915ZM92.4346 106.66V106.86H92.6346V106.66H92.4346ZM91.7304 106.66L91.5716 106.782L91.6317 106.86H91.7304V106.66ZM86.1664 99.3914V99.1914H85.7615L86.0076 99.5129L86.1664 99.3914ZM86.5358 99.3914H86.7358V99.1914H86.5358V99.3914ZM86.5358 106.66V106.86H86.7358V106.66H86.5358ZM96.9075 106.421L96.8305 106.606L96.8339 106.607L96.9075 106.421ZM95.5569 105.525L95.4144 105.665L95.4159 105.666L95.5569 105.525ZM94.668 104.174L94.4824 104.248L94.4834 104.25L94.668 104.174ZM94.668 100.778L94.4834 100.701L94.4824 100.704L94.668 100.778ZM95.5684 99.4272L95.7095 99.5691L95.7095 99.5691L95.5684 99.4272ZM96.919 98.5425L96.9936 98.7281L96.9951 98.7275L96.919 98.5425ZM100.313 98.5186L100.24 98.7048L100.241 98.7052L100.313 98.5186ZM101.629 99.4272L101.774 99.5646L101.9 99.4313L101.778 99.2943L101.629 99.4272ZM101.098 99.9891L100.954 100.128L101.099 100.279L101.243 100.127L101.098 99.9891ZM99.9781 99.2359L100.048 99.0485L100.048 99.0485L99.9781 99.2359ZM97.2769 99.2718L97.3516 99.4573L97.3534 99.4566L97.2769 99.2718ZM96.1803 100.001L96.3224 100.142L96.3224 100.142L96.1803 100.001ZM95.453 101.101L95.2685 101.024L95.2679 101.025L95.453 101.101ZM95.453 103.851L95.2673 103.925L95.2685 103.928L95.453 103.851ZM96.1803 104.963L96.0363 105.102L96.0399 105.105L96.1803 104.963ZM97.2769 105.692L97.1991 105.876L97.2034 105.878L97.2769 105.692ZM99.955 105.728L99.8898 105.539L99.8887 105.539L99.955 105.728ZM101.098 104.999L101.26 104.881L101.123 104.692L100.957 104.856L101.098 104.999ZM101.583 105.668L101.717 105.816L101.783 105.756V105.668H101.583ZM100.232 106.469L100.296 106.658L100.299 106.657L100.232 106.469ZM100.763 105.56H100.563V105.736L100.737 105.759L100.763 105.56ZM100.763 102.476V102.276H100.563V102.476H100.763ZM101.583 102.476H101.783V102.276H101.583V102.476ZM102.707 106.66L102.524 106.58L102.401 106.86H102.707V106.66ZM106.401 98.2915V98.0915H106.271L106.218 98.2107L106.401 98.2915ZM107.244 98.2915L107.427 98.2107L107.374 98.0915H107.244V98.2915ZM110.938 106.66V106.86H111.245L111.121 106.58L110.938 106.66ZM110.038 106.66L109.854 106.74L109.906 106.86H110.038V106.66ZM106.644 98.8055V98.6055H106.34L106.46 98.8849L106.644 98.8055ZM106.99 98.8055L107.174 98.8849L107.294 98.6055H106.99V98.8055ZM103.596 106.66V106.86H103.728L103.78 106.74L103.596 106.66ZM104.162 104.425L103.973 104.358L103.879 104.625H104.162V104.425ZM104.416 103.707V103.507H104.275L104.227 103.641L104.416 103.707ZM109.114 103.707L109.303 103.641L109.256 103.507H109.114V103.707ZM109.368 104.425V104.625H109.651L109.557 104.358L109.368 104.425ZM113.439 106.66H113.239V106.86H113.439V106.66ZM113.439 99.0566H113.639V98.8566H113.439V99.0566ZM110.599 99.0566H110.399V99.2566H110.599V99.0566ZM110.599 98.2915V98.0915H110.399V98.2915H110.599ZM117.133 98.2915H117.333V98.0915H117.133V98.2915ZM117.133 99.0566V99.2566H117.333V99.0566H117.133ZM114.293 99.0566V98.8566H114.093V99.0566H114.293ZM114.293 106.66V106.86H114.493V106.66H114.293ZM121.473 104.186L121.368 104.356L121.373 104.359L121.473 104.186ZM121.161 102.93L121.335 103.029L121.335 103.029L121.161 102.93ZM121.473 102.607L121.373 102.434L121.368 102.437L121.473 102.607ZM122.338 102.607L122.234 102.778L122.234 102.778L122.338 102.607ZM122.65 102.93L122.476 103.029L122.48 103.036L122.65 102.93ZM122.65 103.863L122.48 103.757L122.476 103.764L122.65 103.863ZM122.338 104.186L122.234 104.015L122.234 104.015L122.338 104.186ZM128.683 104.58L128.483 104.587L128.499 105.064L128.828 104.718L128.683 104.58ZM128.649 103.504L128.503 103.367L128.446 103.428L128.449 103.511L128.649 103.504ZM133.543 98.2915V98.0915H133.457L133.397 98.1546L133.543 98.2915ZM134.524 98.2915L134.671 98.4269L134.98 98.0915H134.524V98.2915ZM130.957 102.165L130.81 102.03L130.809 102.031L130.957 102.165ZM130.472 102.703L130.617 102.841L130.621 102.837L130.472 102.703ZM127.944 106.66H127.744V106.86H127.944V106.66ZM127.944 98.2915V98.0915H127.744V98.2915H127.944ZM128.799 98.2915H128.999V98.0915H128.799V98.2915ZM128.799 106.66V106.86H128.999V106.66H128.799ZM133.751 106.66L133.598 106.789L133.658 106.86H133.751V106.66ZM130.265 102.5L130.116 102.367L130 102.496L130.111 102.628L130.265 102.5ZM130.842 101.854L130.997 101.728L130.849 101.546L130.693 101.721L130.842 101.854ZM134.767 106.66V106.86H135.188L134.922 106.534L134.767 106.66ZM134.543 106.66L134.36 106.58L134.236 106.86H134.543V106.66ZM138.237 98.2915V98.0915H138.106L138.054 98.2107L138.237 98.2915ZM139.079 98.2915L139.262 98.2107L139.21 98.0915H139.079V98.2915ZM142.773 106.66V106.86H143.08L142.956 106.58L142.773 106.66ZM141.873 106.66L141.689 106.74L141.741 106.86H141.873V106.66ZM138.479 98.8055V98.6055H138.175L138.295 98.8849L138.479 98.8055ZM138.825 98.8055L139.009 98.8849L139.13 98.6055H138.825V98.8055ZM135.432 106.66V106.86H135.563L135.615 106.74L135.432 106.66ZM135.997 104.425L135.809 104.358L135.714 104.625H135.997V104.425ZM136.251 103.707V103.507H136.11L136.063 103.641L136.251 103.707ZM140.949 103.707L141.138 103.641L141.091 103.507H140.949V103.707ZM141.203 104.425V104.625H141.486L141.392 104.358L141.203 104.425ZM144.606 106.433L144.535 106.62L144.539 106.621L144.606 106.433ZM143.337 105.644L143.157 105.556L143.096 105.68L143.191 105.781L143.337 105.644ZM143.671 104.963L143.813 104.822L143.616 104.623L143.492 104.874L143.671 104.963ZM144.814 105.692L144.737 105.877L144.741 105.878L144.814 105.692ZM147.573 105.788L147.648 105.973L147.65 105.972L147.573 105.788ZM148.277 105.25L148.113 105.136L148.11 105.14L148.277 105.25ZM148.231 103.719L148.082 103.852L148.084 103.855L148.231 103.719ZM147.527 103.253L147.451 103.438L147.456 103.44L147.527 103.253ZM145.495 102.667L145.439 102.859L145.443 102.86L145.495 102.667ZM144.514 102.261L144.415 102.434L144.417 102.435L144.514 102.261ZM143.798 101.603L143.629 101.71L143.633 101.716L143.798 101.603ZM143.844 99.3794L143.674 99.2747L143.673 99.2757L143.844 99.3794ZM144.826 98.5425L144.911 98.7234L144.914 98.7221L144.826 98.5425ZM147.862 98.423L147.804 98.6144L147.807 98.6153L147.862 98.423ZM149.016 98.961L149.201 99.0367L149.261 98.8903L149.132 98.7983L149.016 98.961ZM148.727 99.6663L148.614 99.8309L148.818 99.9722L148.913 99.7421L148.727 99.6663ZM147.619 99.1403L147.564 99.3324L147.565 99.3327L147.619 99.1403ZM145.299 99.1762L145.22 98.9924L145.22 98.9924L145.299 99.1762ZM144.595 99.7261L144.428 99.6153L144.428 99.6165L144.595 99.7261ZM144.641 101.28L144.491 101.413L144.494 101.416L144.641 101.28ZM145.357 101.747L145.285 101.933L145.287 101.934L145.357 101.747ZM146.338 102.046L146.29 102.24L146.29 102.24L146.338 102.046ZM147.388 102.332L147.331 102.524L147.332 102.524L147.388 102.332ZM148.358 102.739L148.259 102.913L148.264 102.916L148.358 102.739ZM149.074 103.385L148.906 103.494L148.909 103.497L149.074 103.385ZM149.028 105.584L149.197 105.691L149.198 105.689L149.028 105.584ZM148.035 106.421L148.12 106.602L148.122 106.601L148.035 106.421ZM149.919 106.66L149.736 106.58L149.612 106.86H149.919V106.66ZM153.613 98.2915V98.0915H153.483L153.43 98.2107L153.613 98.2915ZM154.456 98.2915L154.639 98.2107L154.586 98.0915H154.456V98.2915ZM158.15 106.66V106.86H158.457L158.333 106.58L158.15 106.66ZM157.249 106.66L157.066 106.74L157.118 106.86H157.249V106.66ZM153.856 98.8055V98.6055H153.551L153.672 98.8849L153.856 98.8055ZM154.202 98.8055L154.385 98.8849L154.506 98.6055H154.202V98.8055ZM150.808 106.66V106.86H150.939L150.992 106.74L150.808 106.66ZM151.374 104.425L151.185 104.358L151.091 104.625H151.374V104.425ZM151.628 103.707V103.507H151.486L151.439 103.641L151.628 103.707ZM156.326 103.707L156.514 103.641L156.467 103.507H156.326V103.707ZM156.58 104.425V104.625H156.863L156.768 104.358L156.58 104.425ZM159.486 106.66H159.286V106.86H159.486V106.66ZM159.486 98.2915V98.0915H159.286V98.2915H159.486ZM160.191 98.2915L160.365 98.193L160.307 98.0915H160.191V98.2915ZM163.885 104.819V105.019H164.228L164.059 104.721L163.885 104.819ZM163.515 104.819L163.341 104.721L163.174 105.019H163.515V104.819ZM167.175 98.2915V98.0915H167.057L167 98.1937L167.175 98.2915ZM167.879 98.2915H168.079V98.0915H167.879V98.2915ZM167.879 106.66V106.86H168.079V106.66H167.879ZM167.059 106.66H166.859V106.86H167.059V106.66ZM167.059 99.6185V99.4185H166.859V99.6185H167.059ZM167.255 99.6185L167.43 99.7168L167.598 99.4185H167.255V99.6185ZM163.885 105.596V105.796H164.001L164.059 105.695L163.885 105.596ZM163.481 105.596L163.307 105.695L163.364 105.796H163.481V105.596ZM160.087 99.6185V99.4185H159.743L159.913 99.7173L160.087 99.6185ZM160.306 99.6185H160.506V99.4185H160.306V99.6185ZM160.306 106.66V106.86H160.506V106.66H160.306ZM169.219 106.66L169.036 106.58L168.912 106.86H169.219V106.66ZM172.913 98.2915V98.0915H172.782L172.73 98.2107L172.913 98.2915ZM173.755 98.2915L173.938 98.2107L173.886 98.0915H173.755V98.2915ZM177.449 106.66V106.86H177.756L177.632 106.58L177.449 106.66ZM176.549 106.66L176.365 106.74L176.417 106.86H176.549V106.66ZM173.155 98.8055V98.6055H172.851L172.971 98.8849L173.155 98.8055ZM173.501 98.8055L173.685 98.8849L173.806 98.6055H173.501V98.8055ZM170.108 106.66V106.86H170.239L170.291 106.74L170.108 106.66ZM170.673 104.425L170.485 104.358L170.39 104.625H170.673V104.425ZM170.927 103.707V103.507H170.786L170.739 103.641L170.927 103.707ZM175.625 103.707L175.814 103.641L175.767 103.507H175.625V103.707ZM175.879 104.425V104.625H176.162L176.068 104.358L175.879 104.425ZM22.4457 106.741L26.1396 98.3722L25.7737 98.2107L22.0797 106.58L22.4457 106.741ZM25.9567 98.4915H26.7993V98.0915H25.9567V98.4915ZM26.6164 98.3722L30.3103 106.741L30.6763 106.58L26.9823 98.2107L26.6164 98.3722ZM30.4933 106.46H29.5929V106.86H30.4933V106.46ZM29.7765 106.581L26.3827 98.7262L26.0155 98.8849L29.4093 106.74L29.7765 106.581ZM26.1991 99.0055H26.5454V98.6055H26.1991V99.0055ZM26.3618 98.7262L22.968 106.581L23.3352 106.74L26.729 98.8849L26.3618 98.7262ZM23.1516 106.46H22.2627V106.86H23.1516V106.46ZM23.9057 104.491L24.1597 103.774L23.7826 103.641L23.5287 104.358L23.9057 104.491ZM23.9712 103.907H28.6694V103.507H23.9712V103.907ZM28.4809 103.774L28.7348 104.491L29.1119 104.358L28.858 103.641L28.4809 103.774ZM28.9234 104.225H23.7172V104.625H28.9234V104.225ZM32.03 106.66V98.2915H31.63V106.66H32.03ZM31.83 98.4915H32.5342V98.0915H31.83V98.4915ZM32.3755 98.4132L37.9511 105.682L38.2685 105.439L32.6929 98.1697L32.3755 98.4132ZM38.1098 105.36H37.7404V105.76H38.1098V105.36ZM37.9404 105.56V98.2915H37.5404V105.56H37.9404ZM37.7404 98.4915H38.5831V98.0915H37.7404V98.4915ZM38.3831 98.2915V106.66H38.7831V98.2915H38.3831ZM38.5831 106.46H37.8789V106.86H38.5831V106.46ZM38.0377 106.539L32.4737 99.2698L32.156 99.5129L37.7201 106.782L38.0377 106.539ZM32.3149 99.5914H32.6843V99.1914H32.3149V99.5914ZM32.4843 99.3914V106.66H32.8843V99.3914H32.4843ZM32.6843 106.46H31.83V106.86H32.6843V106.46ZM44.7644 106.532C44.1716 106.532 43.6274 106.432 43.1296 106.235L42.9823 106.607C43.5312 106.825 44.1259 106.932 44.7644 106.932V106.532ZM43.133 106.237C42.6405 106.031 42.2122 105.747 41.8464 105.383L41.5643 105.666C41.968 106.068 42.4401 106.381 42.9789 106.606L43.133 106.237ZM41.8478 105.384C41.4895 105.021 41.2072 104.592 41.0012 104.097L40.6318 104.25C40.8567 104.791 41.167 105.263 41.5629 105.665L41.8478 105.384ZM41.0021 104.099C40.8047 103.607 40.7048 103.067 40.7048 102.476H40.3048C40.3048 103.113 40.4127 103.704 40.6309 104.248L41.0021 104.099ZM40.7048 102.476C40.7048 101.885 40.8047 101.345 41.0021 100.853L40.6309 100.704C40.4127 101.248 40.3048 101.839 40.3048 102.476H40.7048ZM41.0012 100.855C41.2069 100.36 41.4924 99.9324 41.8579 99.5691L41.5759 99.2854C41.1718 99.6872 40.8571 100.16 40.6318 100.701L41.0012 100.855ZM41.8579 99.5691C42.2232 99.2058 42.6507 98.9256 43.1421 98.7281L42.9929 98.357C42.4531 98.5739 41.9801 98.8835 41.5759 99.2854L41.8579 99.5691ZM43.1436 98.7275C43.6407 98.5231 44.1841 98.4197 44.776 98.4197V98.0197C44.1365 98.0197 43.5409 98.1316 42.9914 98.3576L43.1436 98.7275ZM44.776 98.4197C45.3698 98.4197 45.9064 98.5158 46.3883 98.7048L46.5344 98.3324C46.0004 98.1229 45.4134 98.0197 44.776 98.0197V98.4197ZM46.3892 98.7052C46.8757 98.8932 47.2877 99.1779 47.6279 99.5602L47.9267 99.2943C47.5435 98.8636 47.0782 98.5426 46.5334 98.3321L46.3892 98.7052ZM47.6319 99.2899L47.1009 99.8518L47.3917 100.127L47.9227 99.5646L47.6319 99.2899ZM47.3902 99.8502C47.0333 99.4806 46.6354 99.2115 46.1962 99.0485L46.057 99.4234C46.4335 99.5633 46.7821 99.7963 47.1024 100.128L47.3902 99.8502ZM46.1962 99.0485C45.7643 98.8881 45.3019 98.8088 44.8106 98.8088V99.2088C45.2582 99.2088 45.6731 99.2809 46.057 99.4234L46.1962 99.0485ZM44.8106 98.8088C44.2865 98.8088 43.7985 98.9008 43.3488 99.087L43.5019 99.4566C43.8987 99.2922 44.3342 99.2088 44.8106 99.2088V98.8088ZM43.3506 99.0863C42.9097 99.2639 42.5212 99.5222 42.1866 99.8604L42.4709 100.142C42.7672 99.8423 43.1098 99.6145 43.5001 99.4573L43.3506 99.0863ZM42.1866 99.8604C41.8599 100.19 41.6034 100.579 41.417 101.024L41.7859 101.178C41.9535 100.778 42.1819 100.434 42.4708 100.142L42.1866 99.8604ZM41.4163 101.025C41.2361 101.467 41.1475 101.951 41.1475 102.476H41.5475C41.5475 101.997 41.6282 101.564 41.7866 101.177L41.4163 101.025ZM41.1475 102.476C41.1475 102.993 41.2362 103.477 41.4158 103.925L41.7871 103.776C41.6281 103.38 41.5475 102.947 41.5475 102.476H41.1475ZM41.417 103.928C41.6033 104.373 41.8592 104.764 42.1848 105.102L42.4726 104.824C42.1826 104.523 41.9537 104.174 41.7859 103.773L41.417 103.928ZM42.1883 105.105C42.5222 105.434 42.9091 105.691 43.3476 105.876L43.5031 105.508C43.1104 105.342 42.7662 105.113 42.4691 104.82L42.1883 105.105ZM43.3518 105.878C43.8003 106.055 44.2834 106.143 44.799 106.143V105.743C44.3296 105.743 43.8969 105.663 43.4989 105.506L43.3518 105.878ZM44.799 106.143C45.2819 106.143 45.7392 106.068 46.1698 105.916L46.0371 105.539C45.652 105.675 45.2397 105.743 44.799 105.743V106.143ZM46.1687 105.917C46.6156 105.763 47.0217 105.502 47.387 105.141L47.1056 104.856C46.7783 105.18 46.4225 105.406 46.0382 105.539L46.1687 105.917ZM47.0843 105.116L47.5691 105.785L47.8931 105.551L47.4083 104.881L47.0843 105.116ZM47.5964 105.52C47.2323 105.852 46.8054 106.106 46.3135 106.281L46.4475 106.657C46.9869 106.466 47.4604 106.185 47.8659 105.816L47.5964 105.52ZM46.3161 106.28C45.8219 106.448 45.305 106.532 44.7644 106.532V106.932C45.3474 106.932 45.9079 106.841 46.4449 106.658L46.3161 106.28ZM47.1115 105.56V102.476H46.7115V105.56H47.1115ZM46.9115 102.676H47.7311V102.276H46.9115V102.676ZM47.5311 102.476V105.668H47.9311V102.476H47.5311ZM47.7572 105.47L46.9376 105.362L46.8855 105.759L47.7051 105.866L47.7572 105.47ZM49.0389 106.741L52.7328 98.3722L52.3669 98.2107L48.6729 106.58L49.0389 106.741ZM52.5499 98.4915H53.3926V98.0915H52.5499V98.4915ZM53.2096 98.3722L56.9036 106.741L57.2695 106.58L53.5755 98.2107L53.2096 98.3722ZM57.0865 106.46H56.1861V106.86H57.0865V106.46ZM56.3697 106.581L52.9759 98.7262L52.6087 98.8849L56.0025 106.74L56.3697 106.581ZM52.7923 99.0055H53.1386V98.6055H52.7923V99.0055ZM52.955 98.7262L49.5612 106.581L49.9284 106.74L53.3222 98.8849L52.955 98.7262ZM49.7448 106.46H48.8559V106.86H49.7448V106.46ZM50.4989 104.491L50.7529 103.774L50.3758 103.641L50.1219 104.358L50.4989 104.491ZM50.5644 103.907H55.2626V103.507H50.5644V103.907ZM55.0741 103.774L55.3281 104.491L55.7051 104.358L55.4512 103.641L55.0741 103.774ZM55.5166 104.225H50.3104V104.625H55.5166V104.225ZM58.6232 106.66V98.2915H58.2232V106.66H58.6232ZM58.4232 98.4915H61.7132V98.0915H58.4232V98.4915ZM61.7132 98.4915C62.5468 98.4915 63.2665 98.6647 63.8787 99.0043L64.0728 98.6546C63.392 98.2769 62.6034 98.0915 61.7132 98.0915V98.4915ZM63.8812 99.0057C64.5032 99.3392 64.9834 99.8031 65.3261 100.4L65.6729 100.2C65.2922 99.5375 64.7566 99.0211 64.0702 98.6532L63.8812 99.0057ZM65.3261 100.4C65.6682 100.995 65.8421 101.685 65.8421 102.476H66.2421C66.2421 101.625 66.0542 100.864 65.6729 100.2L65.3261 100.4ZM65.8421 102.476C65.8421 103.267 65.6682 103.957 65.3261 104.552L65.6729 104.751C66.0542 104.088 66.2421 103.327 66.2421 102.476H65.8421ZM65.3261 104.552C64.9832 105.149 64.5024 105.617 63.8796 105.959L64.0719 106.31C64.7573 105.934 65.2924 105.414 65.6729 104.751L65.3261 104.552ZM63.8804 105.958C63.2679 106.291 62.5475 106.46 61.7132 106.46V106.86C62.6027 106.86 63.3907 106.679 64.0711 106.31L63.8804 105.958ZM61.7132 106.46H58.4232V106.86H61.7132V106.46ZM59.2775 106.095H61.667V105.695H59.2775V106.095ZM61.667 106.095C62.4097 106.095 63.0636 105.946 63.6217 105.64L63.4294 105.289C62.9409 105.557 62.3558 105.695 61.667 105.695V106.095ZM63.6226 105.64C64.1844 105.328 64.623 104.9 64.9342 104.357L64.5872 104.158C64.3135 104.635 63.9287 105.012 63.4284 105.29L63.6226 105.64ZM64.9349 104.356C65.2463 103.804 65.3994 103.175 65.3994 102.476H64.9994C64.9994 103.115 64.86 103.675 64.5865 104.159L64.9349 104.356ZM65.3994 102.476C65.3994 101.769 65.2465 101.14 64.9342 100.595L64.5872 100.794C64.8598 101.269 64.9994 101.828 64.9994 102.476H65.3994ZM64.9342 100.595C64.6228 100.052 64.1835 99.6272 63.6206 99.323L63.4305 99.6749C63.9296 99.9447 64.3138 100.317 64.5872 100.794L64.9342 100.595ZM63.6237 99.3247C63.0652 99.01 62.4105 98.8566 61.667 98.8566V99.2566C62.3549 99.2566 62.9393 99.3982 63.4274 99.6732L63.6237 99.3247ZM61.667 98.8566H59.2775V99.2566H61.667V98.8566ZM59.0775 99.0566V105.895H59.4775V99.0566H59.0775ZM71.374 104.105C71.2564 104.105 71.1444 104.075 71.035 104.012L70.8356 104.359C71.0032 104.455 71.1837 104.505 71.374 104.505V104.105ZM71.0394 104.015C70.9381 103.953 70.858 103.87 70.7975 103.764L70.4497 103.962C70.5432 104.126 70.6709 104.259 70.8312 104.356L71.0394 104.015ZM70.7975 103.764C70.7405 103.664 70.7082 103.539 70.7082 103.385H70.3082C70.3082 103.596 70.3529 103.791 70.4497 103.962L70.7975 103.764ZM70.7082 103.385C70.7082 103.249 70.7389 103.132 70.7975 103.029L70.4497 102.831C70.3544 102.999 70.3082 103.185 70.3082 103.385H70.7082ZM70.7975 103.029C70.858 102.923 70.9381 102.84 71.0394 102.778L70.8312 102.437C70.6709 102.534 70.5432 102.667 70.4497 102.831L70.7975 103.029ZM71.035 102.781C71.1444 102.718 71.2564 102.688 71.374 102.688V102.288C71.1837 102.288 71.0032 102.338 70.8356 102.434L71.035 102.781ZM71.374 102.688C71.4913 102.688 71.5977 102.718 71.697 102.778L71.9051 102.437C71.7428 102.338 71.5644 102.288 71.374 102.288V102.688ZM71.697 102.778C71.7983 102.84 71.8784 102.923 71.9388 103.029L72.2867 102.831C72.1932 102.667 72.0655 102.534 71.9051 102.437L71.697 102.778ZM71.9431 103.036C72.007 103.138 72.0397 103.253 72.0397 103.385H72.4397C72.4397 103.182 72.3878 102.993 72.2824 102.824L71.9431 103.036ZM72.0397 103.385C72.0397 103.536 72.0051 103.658 71.9431 103.757L72.2824 103.969C72.3897 103.797 72.4397 103.6 72.4397 103.385H72.0397ZM71.9388 103.764C71.8784 103.87 71.7983 103.953 71.697 104.015L71.9051 104.356C72.0655 104.259 72.1932 104.126 72.2867 103.962L71.9388 103.764ZM71.697 104.015C71.5977 104.075 71.4913 104.105 71.374 104.105V104.505C71.5644 104.505 71.7428 104.455 71.9051 104.356L71.697 104.015ZM76.2972 106.741L79.9912 98.3722L79.6252 98.2107L75.9313 106.58L76.2972 106.741ZM79.8082 98.4915H80.6509V98.0915H79.8082V98.4915ZM80.4679 98.3722L84.1619 106.741L84.5278 106.58L80.8339 98.2107L80.4679 98.3722ZM84.3449 106.46H83.4445V106.86H84.3449V106.46ZM83.6281 106.581L80.2342 98.7262L79.867 98.8849L83.2609 106.74L83.6281 106.581ZM80.0506 99.0055H80.3969V98.6055H80.0506V99.0055ZM80.2133 98.7262L76.8195 106.581L77.1867 106.74L80.5805 98.8849L80.2133 98.7262ZM77.0031 106.46H76.1142V106.86H77.0031V106.46ZM77.7573 104.491L78.0112 103.774L77.6342 103.641L77.3802 104.358L77.7573 104.491ZM77.8227 103.907H82.521V103.507H77.8227V103.907ZM82.3324 103.774L82.5864 104.491L82.9635 104.358L82.7095 103.641L82.3324 103.774ZM82.7749 104.225H77.5687V104.625H82.7749V104.225ZM85.8816 106.66V98.2915H85.4816V106.66H85.8816ZM85.6816 98.4915H86.3857V98.0915H85.6816V98.4915ZM86.227 98.4132L91.8026 105.682L92.12 105.439L86.5444 98.1697L86.227 98.4132ZM91.9613 105.36H91.5919V105.76H91.9613V105.36ZM91.7919 105.56V98.2915H91.3919V105.56H91.7919ZM91.5919 98.4915H92.4346V98.0915H91.5919V98.4915ZM92.2346 98.2915V106.66H92.6346V98.2915H92.2346ZM92.4346 106.46H91.7304V106.86H92.4346V106.46ZM91.8893 106.539L86.3252 99.2698L86.0076 99.5129L91.5716 106.782L91.8893 106.539ZM86.1664 99.5914H86.5358V99.1914H86.1664V99.5914ZM86.3358 99.3914V106.66H86.7358V99.3914H86.3358ZM86.5358 106.46H85.6816V106.86H86.5358V106.46ZM98.616 106.532C98.0231 106.532 97.4789 106.432 96.9811 106.235L96.8339 106.607C97.3827 106.825 97.9775 106.932 98.616 106.932V106.532ZM96.9845 106.237C96.4921 106.031 96.0638 105.747 95.6979 105.383L95.4159 105.666C95.8196 106.068 96.2917 106.381 96.8305 106.606L96.9845 106.237ZM95.6993 105.384C95.3411 105.021 95.0588 104.592 94.8527 104.097L94.4834 104.25C94.7083 104.791 95.0185 105.263 95.4145 105.665L95.6993 105.384ZM94.8537 104.099C94.6563 103.607 94.5564 103.067 94.5564 102.476H94.1564C94.1564 103.113 94.2642 103.704 94.4824 104.248L94.8537 104.099ZM94.5564 102.476C94.5564 101.885 94.6563 101.345 94.8537 100.853L94.4824 100.704C94.2642 101.248 94.1564 101.839 94.1564 102.476H94.5564ZM94.8527 100.855C95.0584 100.36 95.344 99.9324 95.7095 99.5691L95.4274 99.2854C95.0233 99.6872 94.7086 100.16 94.4834 100.701L94.8527 100.855ZM95.7095 99.5691C96.0748 99.2058 96.5022 98.9256 96.9936 98.7281L96.8445 98.357C96.3046 98.5739 95.8317 98.8835 95.4274 99.2854L95.7095 99.5691ZM96.9951 98.7275C97.4922 98.5231 98.0356 98.4197 98.6275 98.4197V98.0197C97.9881 98.0197 97.3925 98.1316 96.843 98.3576L96.9951 98.7275ZM98.6275 98.4197C99.2214 98.4197 99.758 98.5158 100.24 98.7048L100.386 98.3324C99.8519 98.1229 99.265 98.0197 98.6275 98.0197V98.4197ZM100.241 98.7052C100.727 98.8932 101.139 99.1779 101.479 99.5602L101.778 99.2943C101.395 98.8636 100.93 98.5426 100.385 98.3321L100.241 98.7052ZM101.483 99.2899L100.952 99.8518L101.243 100.127L101.774 99.5646L101.483 99.2899ZM101.242 99.8502C100.885 99.4806 100.487 99.2115 100.048 99.0485L99.9085 99.4234C100.285 99.5633 100.634 99.7963 100.954 100.128L101.242 99.8502ZM100.048 99.0485C99.6159 98.8881 99.1535 98.8088 98.6621 98.8088V99.2088C99.1097 99.2088 99.5246 99.2809 99.9085 99.4234L100.048 99.0485ZM98.6621 98.8088C98.1381 98.8088 97.65 98.9008 97.2004 99.087L97.3534 99.4566C97.7503 99.2922 98.1858 99.2088 98.6621 99.2088V98.8088ZM97.2022 99.0863C96.7613 99.2639 96.3728 99.5222 96.0381 99.8604L96.3224 100.142C96.6188 99.8423 96.9614 99.6145 97.3516 99.4573L97.2022 99.0863ZM96.0381 99.8604C95.7114 100.19 95.455 100.579 95.2685 101.024L95.6375 101.178C95.805 100.778 96.0334 100.434 96.3224 100.142L96.0381 99.8604ZM95.2679 101.025C95.0876 101.467 94.999 101.951 94.999 102.476H95.399C95.399 101.997 95.4798 101.564 95.6382 101.177L95.2679 101.025ZM94.999 102.476C94.999 102.993 95.0878 103.477 95.2674 103.925L95.6387 103.776C95.4796 103.38 95.399 102.947 95.399 102.476H94.999ZM95.2685 103.928C95.4548 104.373 95.7107 104.764 96.0364 105.102L96.3241 104.824C96.0341 104.523 95.8052 104.174 95.6375 103.773L95.2685 103.928ZM96.0399 105.105C96.3738 105.434 96.7607 105.691 97.1992 105.876L97.3547 105.508C96.962 105.342 96.6178 105.113 96.3206 104.82L96.0399 105.105ZM97.2034 105.878C97.6519 106.055 98.135 106.143 98.6506 106.143V105.743C98.1812 105.743 97.7484 105.663 97.3504 105.506L97.2034 105.878ZM98.6506 106.143C99.1334 106.143 99.5908 106.068 100.021 105.916L99.8887 105.539C99.5035 105.675 99.0913 105.743 98.6506 105.743V106.143ZM100.02 105.917C100.467 105.763 100.873 105.502 101.239 105.141L100.957 104.856C100.63 105.18 100.274 105.406 99.8898 105.539L100.02 105.917ZM100.936 105.116L101.421 105.785L101.745 105.551L101.26 104.881L100.936 105.116ZM101.448 105.52C101.084 105.852 100.657 106.106 100.165 106.281L100.299 106.657C100.838 106.466 101.312 106.185 101.717 105.816L101.448 105.52ZM100.168 106.28C99.6735 106.448 99.1565 106.532 98.616 106.532V106.932C99.199 106.932 99.7595 106.841 100.296 106.658L100.168 106.28ZM100.963 105.56V102.476H100.563V105.56H100.963ZM100.763 102.676H101.583V102.276H100.763V102.676ZM101.383 102.476V105.668H101.783V102.476H101.383ZM101.609 105.47L100.789 105.362L100.737 105.759L101.557 105.866L101.609 105.47ZM102.89 106.741L106.584 98.3722L106.218 98.2107L102.524 106.58L102.89 106.741ZM106.401 98.4915H107.244V98.0915H106.401V98.4915ZM107.061 98.3722L110.755 106.741L111.121 106.58L107.427 98.2107L107.061 98.3722ZM110.938 106.46H110.038V106.86H110.938V106.46ZM110.221 106.581L106.827 98.7262L106.46 98.8849L109.854 106.74L110.221 106.581ZM106.644 99.0055H106.99V98.6055H106.644V99.0055ZM106.807 98.7262L103.413 106.581L103.78 106.74L107.174 98.8849L106.807 98.7262ZM103.596 106.46H102.707V106.86H103.596V106.46ZM104.35 104.491L104.604 103.774L104.227 103.641L103.973 104.358L104.35 104.491ZM104.416 103.907H109.114V103.507H104.416V103.907ZM108.926 103.774L109.18 104.491L109.557 104.358L109.303 103.641L108.926 103.774ZM109.368 104.225H104.162V104.625H109.368V104.225ZM113.639 106.66V99.0566H113.239V106.66H113.639ZM113.439 98.8566H110.599V99.2566H113.439V98.8566ZM110.799 99.0566V98.2915H110.399V99.0566H110.799ZM110.599 98.4915H117.133V98.0915H110.599V98.4915ZM116.933 98.2915V99.0566H117.333V98.2915H116.933ZM117.133 98.8566H114.293V99.2566H117.133V98.8566ZM114.093 99.0566V106.66H114.493V99.0566H114.093ZM114.293 106.46H113.439V106.86H114.293V106.46ZM121.911 104.105C121.794 104.105 121.682 104.075 121.572 104.012L121.373 104.359C121.54 104.455 121.721 104.505 121.911 104.505V104.105ZM121.577 104.015C121.475 103.953 121.395 103.87 121.335 103.764L120.987 103.962C121.08 104.126 121.208 104.259 121.368 104.356L121.577 104.015ZM121.335 103.764C121.278 103.664 121.245 103.539 121.245 103.385H120.845C120.845 103.596 120.89 103.791 120.987 103.962L121.335 103.764ZM121.245 103.385C121.245 103.249 121.276 103.132 121.335 103.029L120.987 102.831C120.892 102.999 120.845 103.185 120.845 103.385H121.245ZM121.335 103.029C121.395 102.923 121.475 102.84 121.577 102.778L121.368 102.437C121.208 102.534 121.08 102.667 120.987 102.831L121.335 103.029ZM121.572 102.781C121.682 102.718 121.794 102.688 121.911 102.688V102.288C121.721 102.288 121.54 102.338 121.373 102.434L121.572 102.781ZM121.911 102.688C122.029 102.688 122.135 102.718 122.234 102.778L122.442 102.437C122.28 102.338 122.102 102.288 121.911 102.288V102.688ZM122.234 102.778C122.336 102.84 122.416 102.923 122.476 103.029L122.824 102.831C122.73 102.667 122.603 102.534 122.442 102.437L122.234 102.778ZM122.48 103.036C122.544 103.138 122.577 103.253 122.577 103.385H122.977C122.977 103.182 122.925 102.993 122.82 102.824L122.48 103.036ZM122.577 103.385C122.577 103.536 122.542 103.658 122.48 103.757L122.82 103.969C122.927 103.797 122.977 103.6 122.977 103.385H122.577ZM122.476 103.764C122.416 103.87 122.336 103.953 122.234 104.015L122.442 104.356C122.603 104.259 122.73 104.126 122.824 103.962L122.476 103.764ZM122.234 104.015C122.135 104.075 122.029 104.105 121.911 104.105V104.505C122.102 104.505 122.28 104.455 122.442 104.356L122.234 104.015ZM128.883 104.574L128.848 103.498L128.449 103.511L128.483 104.587L128.883 104.574ZM128.794 103.641L133.689 98.4284L133.397 98.1546L128.503 103.367L128.794 103.641ZM133.543 98.4915H134.524V98.0915H133.543V98.4915ZM134.377 98.156L130.81 102.03L131.104 102.301L134.671 98.4269L134.377 98.156ZM130.809 102.031L130.324 102.569L130.621 102.837L131.106 102.299L130.809 102.031ZM130.328 102.565L128.538 104.442L128.828 104.718L130.617 102.841L130.328 102.565ZM128.144 106.66V98.2915H127.744V106.66H128.144ZM127.944 98.4915H128.799V98.0915H127.944V98.4915ZM128.599 98.2915V106.66H128.999V98.2915H128.599ZM128.799 106.46H127.944V106.86H128.799V106.46ZM133.904 106.532L130.418 102.371L130.111 102.628L133.598 106.789L133.904 106.532ZM130.414 102.633L130.991 101.988L130.693 101.721L130.116 102.367L130.414 102.633ZM130.687 101.981L134.612 106.787L134.922 106.534L130.997 101.728L130.687 101.981ZM134.767 106.46H133.751V106.86H134.767V106.46ZM134.726 106.741L138.42 98.3722L138.054 98.2107L134.36 106.58L134.726 106.741ZM138.237 98.4915H139.079V98.0915H138.237V98.4915ZM138.896 98.3722L142.59 106.741L142.956 106.58L139.262 98.2107L138.896 98.3722ZM142.773 106.46H141.873V106.86H142.773V106.46ZM142.056 106.581L138.663 98.7262L138.295 98.8849L141.689 106.74L142.056 106.581ZM138.479 99.0055H138.825V98.6055H138.479V99.0055ZM138.642 98.7262L135.248 106.581L135.615 106.74L139.009 98.8849L138.642 98.7262ZM135.432 106.46H134.543V106.86H135.432V106.46ZM136.186 104.491L136.44 103.774L136.063 103.641L135.809 104.358L136.186 104.491ZM136.251 103.907H140.949V103.507H136.251V103.907ZM140.761 103.774L141.015 104.491L141.392 104.358L141.138 103.641L140.761 103.774ZM141.203 104.225H135.997V104.625H141.203V104.225ZM146.338 106.532C145.76 106.532 145.206 106.436 144.674 106.245L144.539 106.621C145.115 106.829 145.715 106.932 146.338 106.932V106.532ZM144.677 106.246C144.15 106.046 143.756 105.798 143.482 105.507L143.191 105.781C143.518 106.128 143.97 106.406 144.535 106.62L144.677 106.246ZM143.516 105.732L143.851 105.051L143.492 104.874L143.157 105.556L143.516 105.732ZM143.529 105.104C143.837 105.414 144.242 105.67 144.737 105.876L144.891 105.507C144.432 105.316 144.075 105.086 143.813 104.822L143.529 105.104ZM144.741 105.878C145.249 106.079 145.782 106.179 146.338 106.179V105.779C145.832 105.779 145.349 105.688 144.888 105.506L144.741 105.878ZM146.338 106.179C146.86 106.179 147.3 106.114 147.648 105.973L147.498 105.602C147.215 105.717 146.832 105.779 146.338 105.779V106.179ZM147.65 105.972C147.999 105.826 148.271 105.625 148.445 105.359L148.11 105.14C147.992 105.321 147.794 105.478 147.496 105.603L147.65 105.972ZM148.442 105.363C148.619 105.107 148.708 104.82 148.708 104.508H148.308C148.308 104.739 148.244 104.946 148.113 105.136L148.442 105.363ZM148.708 104.508C148.708 104.142 148.603 103.827 148.378 103.583L148.084 103.855C148.228 104.01 148.308 104.221 148.308 104.508H148.708ZM148.381 103.586C148.179 103.359 147.915 103.187 147.598 103.066L147.456 103.44C147.723 103.542 147.929 103.681 148.082 103.852L148.381 103.586ZM147.603 103.068C147.3 102.944 146.967 102.838 146.605 102.748L146.509 103.136C146.855 103.222 147.169 103.323 147.451 103.438L147.603 103.068ZM146.605 102.748C146.253 102.661 145.9 102.569 145.547 102.474L145.443 102.86C145.798 102.956 146.154 103.048 146.509 103.136L146.605 102.748ZM145.551 102.475C145.211 102.376 144.898 102.246 144.611 102.086L144.417 102.435C144.731 102.611 145.072 102.752 145.439 102.859L145.551 102.475ZM144.613 102.087C144.346 101.934 144.131 101.736 143.964 101.491L143.633 101.716C143.835 102.013 144.097 102.252 144.415 102.434L144.613 102.087ZM143.967 101.496C143.816 101.258 143.733 100.937 143.733 100.515H143.333C143.333 100.987 143.426 101.39 143.629 101.71L143.967 101.496ZM143.733 100.515C143.733 100.136 143.827 99.7935 144.016 99.4831L143.673 99.2757C143.446 99.6508 143.333 100.065 143.333 100.515H143.733ZM144.015 99.4841C144.207 99.1721 144.501 98.917 144.911 98.7234L144.74 98.3617C144.273 98.5825 143.913 98.8854 143.674 99.2747L144.015 99.4841ZM144.914 98.7221C145.316 98.5246 145.845 98.4197 146.511 98.4197V98.0197C145.807 98.0197 145.212 98.13 144.738 98.363L144.914 98.7221ZM146.511 98.4197C146.945 98.4197 147.376 98.4844 147.804 98.6143L147.92 98.2316C147.455 98.0905 146.985 98.0197 146.511 98.0197V98.4197ZM147.807 98.6153C148.235 98.7375 148.598 98.9079 148.9 99.1237L149.132 98.7983C148.788 98.5518 148.381 98.3634 147.917 98.2307L147.807 98.6153ZM148.831 98.8852L148.542 99.5906L148.913 99.7421L149.201 99.0367L148.831 98.8852ZM148.841 99.5018C148.477 99.2506 148.088 99.0657 147.674 98.9479L147.565 99.3327C147.935 99.4381 148.285 99.6038 148.614 99.8309L148.841 99.5018ZM147.675 98.9482C147.274 98.8319 146.882 98.7729 146.5 98.7729V99.1729C146.84 99.1729 147.195 99.2255 147.564 99.3324L147.675 98.9482ZM146.5 98.7729C145.998 98.7729 145.569 98.8427 145.22 98.9924L145.378 99.3599C145.66 99.2386 146.031 99.1729 146.5 99.1729V98.7729ZM145.22 98.9924C144.877 99.1396 144.608 99.345 144.428 99.6153L144.761 99.837C144.889 99.645 145.09 99.4838 145.378 99.3599L145.22 98.9924ZM144.428 99.6165C144.258 99.8747 144.176 100.168 144.176 100.491H144.576C144.576 100.24 144.639 100.024 144.762 99.8357L144.428 99.6165ZM144.176 100.491C144.176 100.855 144.275 101.169 144.491 101.413L144.791 101.148C144.653 100.993 144.576 100.781 144.576 100.491H144.176ZM144.494 101.416C144.703 101.641 144.969 101.813 145.285 101.933L145.428 101.56C145.16 101.457 144.949 101.318 144.788 101.144L144.494 101.416ZM145.287 101.934C145.595 102.049 145.93 102.15 146.29 102.24L146.386 101.851C146.038 101.765 145.719 101.668 145.426 101.559L145.287 101.934ZM146.29 102.24C146.641 102.327 146.988 102.421 147.331 102.524L147.446 102.141C147.096 102.036 146.743 101.94 146.386 101.851L146.29 102.24ZM147.332 102.524C147.673 102.624 147.981 102.754 148.259 102.913L148.457 102.565C148.15 102.389 147.812 102.248 147.445 102.14L147.332 102.524ZM148.264 102.916C148.536 103.06 148.749 103.253 148.906 103.494L149.241 103.275C149.045 102.974 148.78 102.737 148.452 102.562L148.264 102.916ZM148.909 103.497C149.064 103.725 149.151 104.037 149.151 104.449H149.551C149.551 103.983 149.453 103.586 149.239 103.272L148.909 103.497ZM149.151 104.449C149.151 104.818 149.054 105.16 148.857 105.48L149.198 105.689C149.433 105.307 149.551 104.893 149.551 104.449H149.151ZM148.858 105.478C148.667 105.782 148.368 106.039 147.948 106.241L148.122 106.601C148.594 106.374 148.957 106.072 149.197 105.691L148.858 105.478ZM147.949 106.24C147.546 106.431 147.013 106.532 146.338 106.532V106.932C147.048 106.932 147.646 106.826 148.12 106.602L147.949 106.24ZM150.102 106.741L153.796 98.3722L153.43 98.2107L149.736 106.58L150.102 106.741ZM153.613 98.4915H154.456V98.0915H153.613V98.4915ZM154.273 98.3722L157.967 106.741L158.333 106.58L154.639 98.2107L154.273 98.3722ZM158.15 106.46H157.249V106.86H158.15V106.46ZM157.433 106.581L154.039 98.7262L153.672 98.8849L157.066 106.74L157.433 106.581ZM153.856 99.0055H154.202V98.6055H153.856V99.0055ZM154.018 98.7262L150.624 106.581L150.992 106.74L154.385 98.8849L154.018 98.7262ZM150.808 106.46H149.919V106.86H150.808V106.46ZM151.562 104.491L151.816 103.774L151.439 103.641L151.185 104.358L151.562 104.491ZM151.628 103.907H156.326V103.507H151.628V103.907ZM156.137 103.774L156.391 104.491L156.768 104.358L156.514 103.641L156.137 103.774ZM156.58 104.225H151.374V104.625H156.58V104.225ZM159.686 106.66V98.2915H159.286V106.66H159.686ZM159.486 98.4915H160.191V98.0915H159.486V98.4915ZM160.017 98.39L163.711 104.918L164.059 104.721L160.365 98.193L160.017 98.39ZM163.885 104.619H163.515V105.019H163.885V104.619ZM163.69 104.917L167.349 98.3893L167 98.1937L163.341 104.721L163.69 104.917ZM167.175 98.4915H167.879V98.0915H167.175V98.4915ZM167.679 98.2915V106.66H168.079V98.2915H167.679ZM167.879 106.46H167.059V106.86H167.879V106.46ZM167.259 106.66V99.6185H166.859V106.66H167.259ZM167.059 99.8185H167.255V99.4185H167.059V99.8185ZM167.081 99.5203L163.71 105.498L164.059 105.695L167.43 99.7168L167.081 99.5203ZM163.885 105.396H163.481V105.796H163.885V105.396ZM163.655 105.498L160.261 99.5198L159.913 99.7173L163.307 105.695L163.655 105.498ZM160.087 99.8185H160.306V99.4185H160.087V99.8185ZM160.106 99.6185V106.66H160.506V99.6185H160.106ZM160.306 106.46H159.486V106.86H160.306V106.46ZM169.402 106.741L173.096 98.3722L172.73 98.2107L169.036 106.58L169.402 106.741ZM172.913 98.4915H173.755V98.0915H172.913V98.4915ZM173.572 98.3722L177.266 106.741L177.632 106.58L173.938 98.2107L173.572 98.3722ZM177.449 106.46H176.549V106.86H177.449V106.46ZM176.732 106.581L173.339 98.7262L172.971 98.8849L176.365 106.74L176.732 106.581ZM173.155 99.0055H173.501V98.6055H173.155V99.0055ZM173.318 98.7262L169.924 106.581L170.291 106.74L173.685 98.8849L173.318 98.7262ZM170.108 106.46H169.219V106.86H170.108V106.46ZM170.862 104.491L171.116 103.774L170.739 103.641L170.485 104.358L170.862 104.491ZM170.927 103.907H175.625V103.507H170.927V103.907ZM175.437 103.774L175.691 104.491L176.068 104.358L175.814 103.641L175.437 103.774ZM175.879 104.225H170.673V104.625H175.879V104.225Z" fill="white" mask="url(#path-7-outside-1_458_32)"/>
<defs>
<clipPath id="clip0_458_32">
<rect width="146.667" height="16.6667" fill="white" transform="translate(26.8467 73.3335)"/>
</clipPath>
</defs>
</svg>
